<svg width="75" height="73" viewBox="0 0 75 73" fill="none" xmlns="http://www.w3.org/2000/svg">
<path d="M39 2C39 0.89543 38.1046 -5.02307e-08 37 0C35.8954 5.02307e-08 35 0.895431 35 2L39 2ZM35.5858 56.4142C36.3668 57.1953 37.6332 57.1953 38.4142 56.4142L51.1421 43.6863C51.9232 42.9052 51.9232 41.6389 51.1421 40.8579C50.3611 40.0768 49.0948 40.0768 48.3137 40.8579L37 52.1716L25.6863 40.8579C24.9052 40.0768 23.6389 40.0768 22.8579 40.8579C22.0768 41.6389 22.0768 42.9052 22.8579 43.6863L35.5858 56.4142ZM35 2L35 55L39 55L39 2L35 2Z" fill="white"/>
<mask id="path-2-inside-1_108_2" fill="white">
<path d="M0 58H75V63C75 68.5228 70.5228 73 65 73H10C4.47715 73 0 68.5228 0 63V58Z"/>
</mask>
<path d="M0 58H75H0ZM79 63C79 70.732 72.732 77 65 77H10C2.26801 77 -4 70.732 -4 63H4C4 66.3137 6.68629 69 10 69H65C68.3137 69 71 66.3137 71 63H79ZM10 77C2.26801 77 -4 70.732 -4 63V58H4V63C4 66.3137 6.68629 69 10 69V77ZM79 58V63C79 70.732 72.732 77 65 77V69C68.3137 69 71 66.3137 71 63V58H79Z" fill="#14FF00" mask="url(#path-2-inside-1_108_2)"/>
</svg>
